<?xml version="1.0" standalone="no"?>
 <!DOCTYPE svg PUBLIC "-//W3C//DTD SVG 1.1//EN" 
 "http://www.w3.org/Graphics/SVG/1.1/DTD/svg11.dtd"> 
<svg
  xmlns:svg="http://www.w3.org/2000/svg"
  xmlns="http://www.w3.org/2000/svg"
  xmlns:xlink="http://www.w3.org/1999/xlink"
  xmlns:inkscape="http://www.inkscape.org/namespaces/inkscape"
  version="1.1"
  width="99.9998mm" height="79.9846mm" viewBox="0.0000 0.0000 99.9998 79.9846">
<title>SVG Image created as kicad_images-pmio_aiv_voltage_channel.svg date 2026-07-06T21:29:25 </title>
  <desc>Image generated by Eeschema-SVG </desc>
<g style="fill:#000000; fill-opacity:1.0000;stroke:#000000; stroke-opacity:1.0000;
stroke-linecap:round; stroke-linejoin:round;"
 transform="translate(0 0) scale(1 1)">
</g>
<g style="fill:#F5F4EF; fill-opacity:1.0000; 
stroke:#F5F4EF; stroke-width:0.0001; stroke-opacity:1; 
stroke-linecap:round; stroke-linejoin:round;">
<rect x="0.000000" y="0.000000" width="100.000000" height="80.000000" rx="0.000000" />
</g>
<g style="fill:none; 
stroke:#840000; stroke-width:0.2540; stroke-opacity:1; 
stroke-linecap:round; stroke-linejoin:round;">
<rect x="92.964000" y="45.720000" width="2.032000" height="5.080000" rx="0.000000" />
</g>
<g style="fill:none; 
stroke:#840000; stroke-width:0.1524; stroke-opacity:1; 
stroke-linecap:round; stroke-linejoin:round;">
<path d="M93.9800 45.7200
L93.9800 44.4500
" />
<path d="M93.9800 50.8000
L93.9800 52.0700
" />
</g>
<g style="fill:none; 
stroke:#006464; stroke-width:0.1524; stroke-opacity:1; 
stroke-linecap:round; stroke-linejoin:round;">
<text x="97.8105" y="47.6249"
textLength="2.5618" font-size="1.6933" lengthAdjust="spacingAndGlyphs"
text-anchor="middle" opacity="0" stroke-opacity="0">R?</text>
<g class="stroked-text"><desc>R?</desc>
<path d="M97.6592 47.5694
L97.2359 46.9647
" />
<path d="M96.9335 47.5694
L96.9335 46.2994
" />
<path d="M96.9335 46.2994
L97.4173 46.2994
" />
<path d="M97.4173 46.2994
L97.5383 46.3599
" />
<path d="M97.5383 46.3599
L97.5988 46.4204
" />
<path d="M97.5988 46.4204
L97.6592 46.5413
" />
<path d="M97.6592 46.5413
L97.6592 46.7228
" />
<path d="M97.6592 46.7228
L97.5988 46.8437
" />
<path d="M97.5988 46.8437
L97.5383 46.9042
" />
<path d="M97.5383 46.9042
L97.4173 46.9647
" />
<path d="M97.4173 46.9647
L96.9335 46.9647
" />
<path d="M98.3850 47.4485
L98.4454 47.5090
" />
<path d="M98.4454 47.5090
L98.3850 47.5694
" />
<path d="M98.3850 47.5694
L98.3245 47.5090
" />
<path d="M98.3245 47.5090
L98.3850 47.4485
" />
<path d="M98.3850 47.4485
L98.3850 47.5694
" />
<path d="M98.1431 46.3599
L98.2640 46.2994
" />
<path d="M98.2640 46.2994
L98.5664 46.2994
" />
<path d="M98.5664 46.2994
L98.6873 46.3599
" />
<path d="M98.6873 46.3599
L98.7478 46.4809
" />
<path d="M98.7478 46.4809
L98.7478 46.6018
" />
<path d="M98.7478 46.6018
L98.6873 46.7228
" />
<path d="M98.6873 46.7228
L98.6269 46.7832
" />
<path d="M98.6269 46.7832
L98.5059 46.8437
" />
<path d="M98.5059 46.8437
L98.4454 46.9042
" />
<path d="M98.4454 46.9042
L98.3850 47.0251
" />
<path d="M98.3850 47.0251
L98.3850 47.0856
" />
</g><text x="97.2662" y="50.1649"
textLength="1.4732" font-size="1.6933" lengthAdjust="spacingAndGlyphs"
text-anchor="middle" opacity="0" stroke-opacity="0">R</text>
<g class="stroked-text"><desc>R</desc>
<path d="M97.6592 50.1094
L97.2359 49.5047
" />
<path d="M96.9335 50.1094
L96.9335 48.8394
" />
<path d="M96.9335 48.8394
L97.4173 48.8394
" />
<path d="M97.4173 48.8394
L97.5383 48.8999
" />
<path d="M97.5383 48.8999
L97.5988 48.9604
" />
<path d="M97.5988 48.9604
L97.6592 49.0813
" />
<path d="M97.6592 49.0813
L97.6592 49.2628
" />
<path d="M97.6592 49.2628
L97.5988 49.3837
" />
<path d="M97.5988 49.3837
L97.5383 49.4442
" />
<path d="M97.5383 49.4442
L97.4173 49.5047
" />
<path d="M97.4173 49.5047
L96.9335 49.5047
" />
</g></g>
<g style="fill:none; 
stroke:#840000; stroke-width:0.2540; stroke-opacity:1; 
stroke-linecap:round; stroke-linejoin:round;">
<rect x="4.064000" y="27.940000" width="2.032000" height="5.080000" rx="0.000000" />
</g>
<g style="fill:none; 
stroke:#840000; stroke-width:0.1524; stroke-opacity:1; 
stroke-linecap:round; stroke-linejoin:round;">
<path d="M5.0800 27.9400
L5.0800 26.6700
" />
<path d="M5.0800 33.0200
L5.0800 34.2900
" />
</g>
<g style="fill:none; 
stroke:#006464; stroke-width:0.1524; stroke-opacity:1; 
stroke-linecap:round; stroke-linejoin:round;">
<text x="8.9105" y="29.8449"
textLength="2.5618" font-size="1.6933" lengthAdjust="spacingAndGlyphs"
text-anchor="middle" opacity="0" stroke-opacity="0">R?</text>
<g class="stroked-text"><desc>R?</desc>
<path d="M8.7592 29.7894
L8.3359 29.1847
" />
<path d="M8.0335 29.7894
L8.0335 28.5194
" />
<path d="M8.0335 28.5194
L8.5173 28.5194
" />
<path d="M8.5173 28.5194
L8.6383 28.5799
" />
<path d="M8.6383 28.5799
L8.6988 28.6404
" />
<path d="M8.6988 28.6404
L8.7592 28.7613
" />
<path d="M8.7592 28.7613
L8.7592 28.9428
" />
<path d="M8.7592 28.9428
L8.6988 29.0637
" />
<path d="M8.6988 29.0637
L8.6383 29.1242
" />
<path d="M8.6383 29.1242
L8.5173 29.1847
" />
<path d="M8.5173 29.1847
L8.0335 29.1847
" />
<path d="M9.4850 29.6685
L9.5454 29.7290
" />
<path d="M9.5454 29.7290
L9.4850 29.7894
" />
<path d="M9.4850 29.7894
L9.4245 29.7290
" />
<path d="M9.4245 29.7290
L9.4850 29.6685
" />
<path d="M9.4850 29.6685
L9.4850 29.7894
" />
<path d="M9.2431 28.5799
L9.3640 28.5194
" />
<path d="M9.3640 28.5194
L9.6664 28.5194
" />
<path d="M9.6664 28.5194
L9.7873 28.5799
" />
<path d="M9.7873 28.5799
L9.8478 28.7009
" />
<path d="M9.8478 28.7009
L9.8478 28.8218
" />
<path d="M9.8478 28.8218
L9.7873 28.9428
" />
<path d="M9.7873 28.9428
L9.7269 29.0032
" />
<path d="M9.7269 29.0032
L9.6059 29.0637
" />
<path d="M9.6059 29.0637
L9.5454 29.1242
" />
<path d="M9.5454 29.1242
L9.4850 29.2451
" />
<path d="M9.4850 29.2451
L9.4850 29.3056
" />
</g><text x="8.3662" y="32.3849"
textLength="1.4732" font-size="1.6933" lengthAdjust="spacingAndGlyphs"
text-anchor="middle" opacity="0" stroke-opacity="0">R</text>
<g class="stroked-text"><desc>R</desc>
<path d="M8.7592 32.3294
L8.3359 31.7247
" />
<path d="M8.0335 32.3294
L8.0335 31.0594
" />
<path d="M8.0335 31.0594
L8.5173 31.0594
" />
<path d="M8.5173 31.0594
L8.6383 31.1199
" />
<path d="M8.6383 31.1199
L8.6988 31.1804
" />
<path d="M8.6988 31.1804
L8.7592 31.3013
" />
<path d="M8.7592 31.3013
L8.7592 31.4828
" />
<path d="M8.7592 31.4828
L8.6988 31.6037
" />
<path d="M8.6988 31.6037
L8.6383 31.6642
" />
<path d="M8.6383 31.6642
L8.5173 31.7247
" />
<path d="M8.5173 31.7247
L8.0335 31.7247
" />
</g></g>
<g style="fill:none; 
stroke:#0000C2; stroke-width:0.1524; stroke-opacity:1; 
stroke-linecap:round; stroke-linejoin:round;">
<rect x="0.000000" y="0.000000" width="99.060000" height="78.740000" rx="0.000000" />
</g> 
</svg>
