<?xml version="1.0" standalone="no"?>
 <!DOCTYPE svg PUBLIC "-//W3C//DTD SVG 1.1//EN" 
 "http://www.w3.org/Graphics/SVG/1.1/DTD/svg11.dtd"> 
<svg
  xmlns:svg="http://www.w3.org/2000/svg"
  xmlns="http://www.w3.org/2000/svg"
  xmlns:xlink="http://www.w3.org/1999/xlink"
  xmlns:inkscape="http://www.inkscape.org/namespaces/inkscape"
  version="1.1"
  width="99.9998mm" height="39.9796mm" viewBox="0.0000 0.0000 99.9998 39.9796">
<title>SVG Image created as kicad_images-pmio_aiv_voltage_channel.svg date 2026-07-07T21:29:53 </title>
  <desc>Image generated by Eeschema-SVG </desc>
<g style="fill:#000000; fill-opacity:1.0000;stroke:#000000; stroke-opacity:1.0000;
stroke-linecap:round; stroke-linejoin:round;"
 transform="translate(0 0) scale(1 1)">
</g>
<g style="fill:#F5F4EF; fill-opacity:1.0000; 
stroke:#F5F4EF; stroke-width:0.0001; stroke-opacity:1; 
stroke-linecap:round; stroke-linejoin:round;">
<rect x="0.000000" y="0.000000" width="100.000000" height="40.000000" rx="0.000000" />
</g>
<g style="fill:none; 
stroke:#840000; stroke-width:0.2540; stroke-opacity:1; 
stroke-linecap:round; stroke-linejoin:round;">
<rect x="65.024000" y="17.780000" width="2.032000" height="5.080000" rx="0.000000" />
</g>
<g style="fill:none; 
stroke:#840000; stroke-width:0.1524; stroke-opacity:1; 
stroke-linecap:round; stroke-linejoin:round;">
<path d="M66.0400 17.7800
L66.0400 16.5100
" />
<path d="M66.0400 22.8600
L66.0400 24.1300
" />
</g>
<g style="fill:none; 
stroke:#006464; stroke-width:0.1524; stroke-opacity:1; 
stroke-linecap:round; stroke-linejoin:round;">
<text x="71.1404" y="19.6849"
textLength="5.1017" font-size="1.6933" lengthAdjust="spacingAndGlyphs"
text-anchor="middle" opacity="0" stroke-opacity="0">R602</text>
<g class="stroked-text"><desc>R602</desc>
<path d="M69.7192 19.6294
L69.2959 19.0247
" />
<path d="M68.9935 19.6294
L68.9935 18.3594
" />
<path d="M68.9935 18.3594
L69.4773 18.3594
" />
<path d="M69.4773 18.3594
L69.5983 18.4199
" />
<path d="M69.5983 18.4199
L69.6588 18.4804
" />
<path d="M69.6588 18.4804
L69.7192 18.6013
" />
<path d="M69.7192 18.6013
L69.7192 18.7828
" />
<path d="M69.7192 18.7828
L69.6588 18.9037
" />
<path d="M69.6588 18.9037
L69.5983 18.9642
" />
<path d="M69.5983 18.9642
L69.4773 19.0247
" />
<path d="M69.4773 19.0247
L68.9935 19.0247
" />
<path d="M70.8078 18.3594
L70.5659 18.3594
" />
<path d="M70.5659 18.3594
L70.4450 18.4199
" />
<path d="M70.4450 18.4199
L70.3845 18.4804
" />
<path d="M70.3845 18.4804
L70.2635 18.6618
" />
<path d="M70.2635 18.6618
L70.2031 18.9037
" />
<path d="M70.2031 18.9037
L70.2031 19.3875
" />
<path d="M70.2031 19.3875
L70.2635 19.5085
" />
<path d="M70.2635 19.5085
L70.3240 19.5690
" />
<path d="M70.3240 19.5690
L70.4450 19.6294
" />
<path d="M70.4450 19.6294
L70.6869 19.6294
" />
<path d="M70.6869 19.6294
L70.8078 19.5690
" />
<path d="M70.8078 19.5690
L70.8683 19.5085
" />
<path d="M70.8683 19.5085
L70.9288 19.3875
" />
<path d="M70.9288 19.3875
L70.9288 19.0851
" />
<path d="M70.9288 19.0851
L70.8683 18.9642
" />
<path d="M70.8683 18.9642
L70.8078 18.9037
" />
<path d="M70.8078 18.9037
L70.6869 18.8432
" />
<path d="M70.6869 18.8432
L70.4450 18.8432
" />
<path d="M70.4450 18.8432
L70.3240 18.9037
" />
<path d="M70.3240 18.9037
L70.2635 18.9642
" />
<path d="M70.2635 18.9642
L70.2031 19.0851
" />
<path d="M71.7149 18.3594
L71.8359 18.3594
" />
<path d="M71.8359 18.3594
L71.9568 18.4199
" />
<path d="M71.9568 18.4199
L72.0173 18.4804
" />
<path d="M72.0173 18.4804
L72.0778 18.6013
" />
<path d="M72.0778 18.6013
L72.1383 18.8432
" />
<path d="M72.1383 18.8432
L72.1383 19.1456
" />
<path d="M72.1383 19.1456
L72.0778 19.3875
" />
<path d="M72.0778 19.3875
L72.0173 19.5085
" />
<path d="M72.0173 19.5085
L71.9568 19.5690
" />
<path d="M71.9568 19.5690
L71.8359 19.6294
" />
<path d="M71.8359 19.6294
L71.7149 19.6294
" />
<path d="M71.7149 19.6294
L71.5940 19.5690
" />
<path d="M71.5940 19.5690
L71.5335 19.5085
" />
<path d="M71.5335 19.5085
L71.4730 19.3875
" />
<path d="M71.4730 19.3875
L71.4126 19.1456
" />
<path d="M71.4126 19.1456
L71.4126 18.8432
" />
<path d="M71.4126 18.8432
L71.4730 18.6013
" />
<path d="M71.4730 18.6013
L71.5335 18.4804
" />
<path d="M71.5335 18.4804
L71.5940 18.4199
" />
<path d="M71.5940 18.4199
L71.7149 18.3594
" />
<path d="M72.6221 18.4804
L72.6825 18.4199
" />
<path d="M72.6825 18.4199
L72.8035 18.3594
" />
<path d="M72.8035 18.3594
L73.1059 18.3594
" />
<path d="M73.1059 18.3594
L73.2268 18.4199
" />
<path d="M73.2268 18.4199
L73.2873 18.4804
" />
<path d="M73.2873 18.4804
L73.3478 18.6013
" />
<path d="M73.3478 18.6013
L73.3478 18.7223
" />
<path d="M73.3478 18.7223
L73.2873 18.9037
" />
<path d="M73.2873 18.9037
L72.5616 19.6294
" />
<path d="M72.5616 19.6294
L73.3478 19.6294
" />
</g><text x="71.1404" y="22.2249"
textLength="5.1017" font-size="1.6933" lengthAdjust="spacingAndGlyphs"
text-anchor="middle" opacity="0" stroke-opacity="0">220R</text>
<g class="stroked-text"><desc>220R</desc>
<path d="M68.9331 21.0204
L68.9935 20.9599
" />
<path d="M68.9935 20.9599
L69.1145 20.8994
" />
<path d="M69.1145 20.8994
L69.4169 20.8994
" />
<path d="M69.4169 20.8994
L69.5378 20.9599
" />
<path d="M69.5378 20.9599
L69.5983 21.0204
" />
<path d="M69.5983 21.0204
L69.6588 21.1413
" />
<path d="M69.6588 21.1413
L69.6588 21.2623
" />
<path d="M69.6588 21.2623
L69.5983 21.4437
" />
<path d="M69.5983 21.4437
L68.8726 22.1694
" />
<path d="M68.8726 22.1694
L69.6588 22.1694
" />
<path d="M70.1426 21.0204
L70.2030 20.9599
" />
<path d="M70.2030 20.9599
L70.3240 20.8994
" />
<path d="M70.3240 20.8994
L70.6264 20.8994
" />
<path d="M70.6264 20.8994
L70.7473 20.9599
" />
<path d="M70.7473 20.9599
L70.8078 21.0204
" />
<path d="M70.8078 21.0204
L70.8683 21.1413
" />
<path d="M70.8683 21.1413
L70.8683 21.2623
" />
<path d="M70.8683 21.2623
L70.8078 21.4437
" />
<path d="M70.8078 21.4437
L70.0821 22.1694
" />
<path d="M70.0821 22.1694
L70.8683 22.1694
" />
<path d="M71.6544 20.8994
L71.7754 20.8994
" />
<path d="M71.7754 20.8994
L71.8963 20.9599
" />
<path d="M71.8963 20.9599
L71.9568 21.0204
" />
<path d="M71.9568 21.0204
L72.0173 21.1413
" />
<path d="M72.0173 21.1413
L72.0778 21.3832
" />
<path d="M72.0778 21.3832
L72.0778 21.6856
" />
<path d="M72.0778 21.6856
L72.0173 21.9275
" />
<path d="M72.0173 21.9275
L71.9568 22.0485
" />
<path d="M71.9568 22.0485
L71.8963 22.1090
" />
<path d="M71.8963 22.1090
L71.7754 22.1694
" />
<path d="M71.7754 22.1694
L71.6544 22.1694
" />
<path d="M71.6544 22.1694
L71.5335 22.1090
" />
<path d="M71.5335 22.1090
L71.4730 22.0485
" />
<path d="M71.4730 22.0485
L71.4125 21.9275
" />
<path d="M71.4125 21.9275
L71.3521 21.6856
" />
<path d="M71.3521 21.6856
L71.3521 21.3832
" />
<path d="M71.3521 21.3832
L71.4125 21.1413
" />
<path d="M71.4125 21.1413
L71.4730 21.0204
" />
<path d="M71.4730 21.0204
L71.5335 20.9599
" />
<path d="M71.5335 20.9599
L71.6544 20.8994
" />
<path d="M73.3477 22.1694
L72.9244 21.5647
" />
<path d="M72.6220 22.1694
L72.6220 20.8994
" />
<path d="M72.6220 20.8994
L73.1058 20.8994
" />
<path d="M73.1058 20.8994
L73.2268 20.9599
" />
<path d="M73.2268 20.9599
L73.2873 21.0204
" />
<path d="M73.2873 21.0204
L73.3477 21.1413
" />
<path d="M73.3477 21.1413
L73.3477 21.3228
" />
<path d="M73.3477 21.3228
L73.2873 21.4437
" />
<path d="M73.2873 21.4437
L73.2268 21.5042
" />
<path d="M73.2268 21.5042
L73.1058 21.5647
" />
<path d="M73.1058 21.5647
L72.6220 21.5647
" />
</g></g>
<g style="fill:none; 
stroke:#840000; stroke-width:0.1524; stroke-opacity:1; 
stroke-linecap:round; stroke-linejoin:round;">
<rect x="35.560000" y="15.240000" width="10.160000" height="7.620000" rx="0.000000" />
<path style="fill:none; 
stroke:#840000; stroke-width:0.1524; stroke-opacity:1; 
stroke-linecap:round; stroke-linejoin:round;fill:none"
d="M 43.1800,20.3200
43.1800,22.8600
" /> 
<path style="fill:none; 
stroke:#840000; stroke-width:0.1524; stroke-opacity:1; 
stroke-linecap:round; stroke-linejoin:round;fill:none"
d="M 43.1800,17.7800
43.1800,16.5100
38.1000,16.5100
38.1000,17.7800
" /> 
<path style="fill:none; 
stroke:#840000; stroke-width:0.1524; stroke-opacity:1; 
stroke-linecap:round; stroke-linejoin:round;fill:none"
d="M 40.6400,16.5100
40.6400,15.2400
" /> 
<path style="fill:none; 
stroke:#840000; stroke-width:0.1524; stroke-opacity:1; 
stroke-linecap:round; stroke-linejoin:round;fill:none"
d="M 38.1000,22.8600
38.1000,20.3200
" /> 
<path style="fill:none; 
stroke:#840000; stroke-width:0.2032; stroke-opacity:1; 
stroke-linecap:round; stroke-linejoin:round;fill:none"
d="M 44.4500,20.3200
41.9100,20.3200
41.9100,20.3200
" /> 
<path style="fill:none; 
stroke:#840000; stroke-width:0.2032; stroke-opacity:1; 
stroke-linecap:round; stroke-linejoin:round;fill:none"
d="M 44.4500,17.7800
43.1800,20.3200
41.9100,17.7800
44.4500,17.7800
44.4500,17.7800
Z" /> 
<path style="fill:none; 
stroke:#840000; stroke-width:0.2032; stroke-opacity:1; 
stroke-linecap:round; stroke-linejoin:round;fill:none"
d="M 39.3700,17.7800
36.8300,17.7800
36.8300,17.7800
" /> 
<path style="fill:none; 
stroke:#840000; stroke-width:0.2032; stroke-opacity:1; 
stroke-linecap:round; stroke-linejoin:round;fill:none"
d="M 36.8300,20.3200
38.1000,17.7800
39.3700,20.3200
36.8300,20.3200
36.8300,20.3200
Z" /> 
</g>
<g style="fill:none; 
stroke:#840000; stroke-width:0.1524; stroke-opacity:1; 
stroke-linecap:round; stroke-linejoin:round;">
<path d="M38.1000 22.8600
L38.1000 25.4000
" />
</g>
<g style="fill:none; 
stroke:#A90000; stroke-width:0.1524; stroke-opacity:1; 
stroke-linecap:round; stroke-linejoin:round;">
<g transform="rotate(-90.000000 37.8460 24.1300)">
<text x="37.8460" y="24.1300"
textLength="1.4127" font-size="1.6933" lengthAdjust="spacingAndGlyphs"
text-anchor="middle" opacity="0" stroke-opacity="0">1</text>
</g>
<g class="stroked-text"><desc>1</desc>
<path d="M37.6825 23.7670
L37.6825 24.4927
" />
<path d="M37.6825 24.1299
L36.4125 24.1299
" />
<path d="M36.4125 24.1299
L36.5940 24.2508
" />
<path d="M36.5940 24.2508
L36.7149 24.3718
" />
<path d="M36.7149 24.3718
L36.7754 24.4927
" />
</g></g>
<g style="fill:none; 
stroke:#840000; stroke-width:0.1524; stroke-opacity:1; 
stroke-linecap:round; stroke-linejoin:round;">
<path d="M43.1800 22.8600
L43.1800 25.4000
" />
</g>
<g style="fill:none; 
stroke:#A90000; stroke-width:0.1524; stroke-opacity:1; 
stroke-linecap:round; stroke-linejoin:round;">
<g transform="rotate(-90.000000 42.9260 24.1300)">
<text x="42.9260" y="24.1300"
textLength="1.4127" font-size="1.6933" lengthAdjust="spacingAndGlyphs"
text-anchor="middle" opacity="0" stroke-opacity="0">2</text>
</g>
<g class="stroked-text"><desc>2</desc>
<path d="M41.6135 24.4927
L41.5530 24.4323
" />
<path d="M41.5530 24.4323
L41.4925 24.3113
" />
<path d="M41.4925 24.3113
L41.4925 24.0089
" />
<path d="M41.4925 24.0089
L41.5530 23.8880
" />
<path d="M41.5530 23.8880
L41.6135 23.8275
" />
<path d="M41.6135 23.8275
L41.7344 23.7670
" />
<path d="M41.7344 23.7670
L41.8554 23.7670
" />
<path d="M41.8554 23.7670
L42.0368 23.8275
" />
<path d="M42.0368 23.8275
L42.7625 24.5532
" />
<path d="M42.7625 24.5532
L42.7625 23.7670
" />
</g></g>
<g style="fill:none; 
stroke:#840000; stroke-width:0.1524; stroke-opacity:1; 
stroke-linecap:round; stroke-linejoin:round;">
<path d="M40.6400 15.2400
L40.6400 12.7000
" />
</g>
<g style="fill:none; 
stroke:#A90000; stroke-width:0.1524; stroke-opacity:1; 
stroke-linecap:round; stroke-linejoin:round;">
<g transform="rotate(-90.000000 40.3860 13.9700)">
<text x="40.3860" y="13.9700"
textLength="1.4127" font-size="1.6933" lengthAdjust="spacingAndGlyphs"
text-anchor="middle" opacity="0" stroke-opacity="0">3</text>
</g>
<g class="stroked-text"><desc>3</desc>
<path d="M38.9525 14.3932
L38.9525 13.6070
" />
<path d="M38.9525 13.6070
L39.4363 14.0304
" />
<path d="M39.4363 14.0304
L39.4363 13.8489
" />
<path d="M39.4363 13.8489
L39.4968 13.7280
" />
<path d="M39.4968 13.7280
L39.5573 13.6675
" />
<path d="M39.5573 13.6675
L39.6782 13.6070
" />
<path d="M39.6782 13.6070
L39.9806 13.6070
" />
<path d="M39.9806 13.6070
L40.1016 13.6675
" />
<path d="M40.1016 13.6675
L40.1621 13.7280
" />
<path d="M40.1621 13.7280
L40.2225 13.8489
" />
<path d="M40.2225 13.8489
L40.2225 14.2118
" />
<path d="M40.2225 14.2118
L40.1621 14.3327
" />
<path d="M40.1621 14.3327
L40.1016 14.3932
" />
</g></g>
<g style="fill:none; 
stroke:#006464; stroke-width:0.1524; stroke-opacity:1; 
stroke-linecap:round; stroke-linejoin:round;">
<text x="49.5807" y="18.4148"
textLength="5.1622" font-size="1.6933" lengthAdjust="spacingAndGlyphs"
text-anchor="middle" opacity="0" stroke-opacity="0">U601</text>
<g class="stroked-text"><desc>U601</desc>
<path d="M47.4035 17.0893
L47.4035 18.1174
" />
<path d="M47.4035 18.1174
L47.4640 18.2384
" />
<path d="M47.4640 18.2384
L47.5245 18.2989
" />
<path d="M47.5245 18.2989
L47.6454 18.3593
" />
<path d="M47.6454 18.3593
L47.8873 18.3593
" />
<path d="M47.8873 18.3593
L48.0083 18.2989
" />
<path d="M48.0083 18.2989
L48.0688 18.2384
" />
<path d="M48.0688 18.2384
L48.1292 18.1174
" />
<path d="M48.1292 18.1174
L48.1292 17.0893
" />
<path d="M49.2783 17.0893
L49.0364 17.0893
" />
<path d="M49.0364 17.0893
L48.9155 17.1498
" />
<path d="M48.9155 17.1498
L48.8550 17.2103
" />
<path d="M48.8550 17.2103
L48.7340 17.3917
" />
<path d="M48.7340 17.3917
L48.6736 17.6336
" />
<path d="M48.6736 17.6336
L48.6736 18.1174
" />
<path d="M48.6736 18.1174
L48.7340 18.2384
" />
<path d="M48.7340 18.2384
L48.7945 18.2989
" />
<path d="M48.7945 18.2989
L48.9155 18.3593
" />
<path d="M48.9155 18.3593
L49.1574 18.3593
" />
<path d="M49.1574 18.3593
L49.2783 18.2989
" />
<path d="M49.2783 18.2989
L49.3388 18.2384
" />
<path d="M49.3388 18.2384
L49.3993 18.1174
" />
<path d="M49.3993 18.1174
L49.3993 17.8150
" />
<path d="M49.3993 17.8150
L49.3388 17.6941
" />
<path d="M49.3388 17.6941
L49.2783 17.6336
" />
<path d="M49.2783 17.6336
L49.1574 17.5731
" />
<path d="M49.1574 17.5731
L48.9155 17.5731
" />
<path d="M48.9155 17.5731
L48.7945 17.6336
" />
<path d="M48.7945 17.6336
L48.7340 17.6941
" />
<path d="M48.7340 17.6941
L48.6736 17.8150
" />
<path d="M50.1854 17.0893
L50.3064 17.0893
" />
<path d="M50.3064 17.0893
L50.4273 17.1498
" />
<path d="M50.4273 17.1498
L50.4878 17.2103
" />
<path d="M50.4878 17.2103
L50.5483 17.3312
" />
<path d="M50.5483 17.3312
L50.6088 17.5731
" />
<path d="M50.6088 17.5731
L50.6088 17.8755
" />
<path d="M50.6088 17.8755
L50.5483 18.1174
" />
<path d="M50.5483 18.1174
L50.4878 18.2384
" />
<path d="M50.4878 18.2384
L50.4273 18.2989
" />
<path d="M50.4273 18.2989
L50.3064 18.3593
" />
<path d="M50.3064 18.3593
L50.1854 18.3593
" />
<path d="M50.1854 18.3593
L50.0645 18.2989
" />
<path d="M50.0645 18.2989
L50.0040 18.2384
" />
<path d="M50.0040 18.2384
L49.9435 18.1174
" />
<path d="M49.9435 18.1174
L49.8831 17.8755
" />
<path d="M49.8831 17.8755
L49.8831 17.5731
" />
<path d="M49.8831 17.5731
L49.9435 17.3312
" />
<path d="M49.9435 17.3312
L50.0040 17.2103
" />
<path d="M50.0040 17.2103
L50.0645 17.1498
" />
<path d="M50.0645 17.1498
L50.1854 17.0893
" />
<path d="M51.8183 18.3593
L51.0926 18.3593
" />
<path d="M51.4554 18.3593
L51.4554 17.0893
" />
<path d="M51.4554 17.0893
L51.3345 17.2708
" />
<path d="M51.3345 17.2708
L51.2135 17.3917
" />
<path d="M51.2135 17.3917
L51.0926 17.4522
" />
</g><text x="52.8766" y="20.9548"
textLength="11.7541" font-size="1.6933" lengthAdjust="spacingAndGlyphs"
text-anchor="middle" opacity="0" stroke-opacity="0">BAV199LT1G</text>
<g class="stroked-text"><desc>BAV199LT1G</desc>
<path d="M47.8269 20.2341
L48.0083 20.2946
" />
<path d="M48.0083 20.2946
L48.0688 20.3550
" />
<path d="M48.0688 20.3550
L48.1292 20.4760
" />
<path d="M48.1292 20.4760
L48.1292 20.6574
" />
<path d="M48.1292 20.6574
L48.0688 20.7784
" />
<path d="M48.0688 20.7784
L48.0083 20.8389
" />
<path d="M48.0083 20.8389
L47.8873 20.8993
" />
<path d="M47.8873 20.8993
L47.4035 20.8993
" />
<path d="M47.4035 20.8993
L47.4035 19.6293
" />
<path d="M47.4035 19.6293
L47.8269 19.6293
" />
<path d="M47.8269 19.6293
L47.9478 19.6898
" />
<path d="M47.9478 19.6898
L48.0083 19.7503
" />
<path d="M48.0083 19.7503
L48.0688 19.8712
" />
<path d="M48.0688 19.8712
L48.0688 19.9922
" />
<path d="M48.0688 19.9922
L48.0083 20.1131
" />
<path d="M48.0083 20.1131
L47.9478 20.1736
" />
<path d="M47.9478 20.1736
L47.8269 20.2341
" />
<path d="M47.8269 20.2341
L47.4035 20.2341
" />
<path d="M48.6131 20.5365
L49.2178 20.5365
" />
<path d="M48.4921 20.8993
L48.9154 19.6293
" />
<path d="M48.9154 19.6293
L49.3388 20.8993
" />
<path d="M49.5807 19.6293
L50.0040 20.8993
" />
<path d="M50.0040 20.8993
L50.4274 19.6293
" />
<path d="M51.5160 20.8993
L50.7903 20.8993
" />
<path d="M51.1531 20.8993
L51.1531 19.6293
" />
<path d="M51.1531 19.6293
L51.0322 19.8108
" />
<path d="M51.0322 19.8108
L50.9112 19.9317
" />
<path d="M50.9112 19.9317
L50.7903 19.9922
" />
<path d="M52.1207 20.8993
L52.3626 20.8993
" />
<path d="M52.3626 20.8993
L52.4836 20.8389
" />
<path d="M52.4836 20.8389
L52.5440 20.7784
" />
<path d="M52.5440 20.7784
L52.6650 20.5969
" />
<path d="M52.6650 20.5969
L52.7255 20.3550
" />
<path d="M52.7255 20.3550
L52.7255 19.8712
" />
<path d="M52.7255 19.8712
L52.6650 19.7503
" />
<path d="M52.6650 19.7503
L52.6045 19.6898
" />
<path d="M52.6045 19.6898
L52.4836 19.6293
" />
<path d="M52.4836 19.6293
L52.2417 19.6293
" />
<path d="M52.2417 19.6293
L52.1207 19.6898
" />
<path d="M52.1207 19.6898
L52.0602 19.7503
" />
<path d="M52.0602 19.7503
L51.9998 19.8712
" />
<path d="M51.9998 19.8712
L51.9998 20.1736
" />
<path d="M51.9998 20.1736
L52.0602 20.2946
" />
<path d="M52.0602 20.2946
L52.1207 20.3550
" />
<path d="M52.1207 20.3550
L52.2417 20.4155
" />
<path d="M52.2417 20.4155
L52.4836 20.4155
" />
<path d="M52.4836 20.4155
L52.6045 20.3550
" />
<path d="M52.6045 20.3550
L52.6650 20.2946
" />
<path d="M52.6650 20.2946
L52.7255 20.1736
" />
<path d="M53.3302 20.8993
L53.5721 20.8993
" />
<path d="M53.5721 20.8993
L53.6931 20.8389
" />
<path d="M53.6931 20.8389
L53.7535 20.7784
" />
<path d="M53.7535 20.7784
L53.8745 20.5969
" />
<path d="M53.8745 20.5969
L53.9350 20.3550
" />
<path d="M53.9350 20.3550
L53.9350 19.8712
" />
<path d="M53.9350 19.8712
L53.8745 19.7503
" />
<path d="M53.8745 19.7503
L53.8140 19.6898
" />
<path d="M53.8140 19.6898
L53.6931 19.6293
" />
<path d="M53.6931 19.6293
L53.4512 19.6293
" />
<path d="M53.4512 19.6293
L53.3302 19.6898
" />
<path d="M53.3302 19.6898
L53.2697 19.7503
" />
<path d="M53.2697 19.7503
L53.2093 19.8712
" />
<path d="M53.2093 19.8712
L53.2093 20.1736
" />
<path d="M53.2093 20.1736
L53.2697 20.2946
" />
<path d="M53.2697 20.2946
L53.3302 20.3550
" />
<path d="M53.3302 20.3550
L53.4512 20.4155
" />
<path d="M53.4512 20.4155
L53.6931 20.4155
" />
<path d="M53.6931 20.4155
L53.8140 20.3550
" />
<path d="M53.8140 20.3550
L53.8745 20.2946
" />
<path d="M53.8745 20.2946
L53.9350 20.1736
" />
<path d="M55.0840 20.8993
L54.4792 20.8993
" />
<path d="M54.4792 20.8993
L54.4792 19.6293
" />
<path d="M55.3259 19.6293
L56.0516 19.6293
" />
<path d="M55.6888 20.8993
L55.6888 19.6293
" />
<path d="M57.1402 20.8993
L56.4145 20.8993
" />
<path d="M56.7773 20.8993
L56.7773 19.6293
" />
<path d="M56.7773 19.6293
L56.6564 19.8108
" />
<path d="M56.6564 19.8108
L56.5354 19.9317
" />
<path d="M56.5354 19.9317
L56.4145 19.9922
" />
<path d="M58.3497 19.6898
L58.2287 19.6293
" />
<path d="M58.2287 19.6293
L58.0473 19.6293
" />
<path d="M58.0473 19.6293
L57.8659 19.6898
" />
<path d="M57.8659 19.6898
L57.7449 19.8108
" />
<path d="M57.7449 19.8108
L57.6844 19.9317
" />
<path d="M57.6844 19.9317
L57.6240 20.1736
" />
<path d="M57.6240 20.1736
L57.6240 20.3550
" />
<path d="M57.6240 20.3550
L57.6844 20.5969
" />
<path d="M57.6844 20.5969
L57.7449 20.7179
" />
<path d="M57.7449 20.7179
L57.8659 20.8389
" />
<path d="M57.8659 20.8389
L58.0473 20.8993
" />
<path d="M58.0473 20.8993
L58.1682 20.8993
" />
<path d="M58.1682 20.8993
L58.3497 20.8389
" />
<path d="M58.3497 20.8389
L58.4101 20.7784
" />
<path d="M58.4101 20.7784
L58.4101 20.3550
" />
<path d="M58.4101 20.3550
L58.1682 20.3550
" />
</g><path style="fill:none; 
stroke:#840000; stroke-width:0.2032; stroke-opacity:1; 
stroke-linecap:round; stroke-linejoin:round;fill:none"
d="M 82.5500,22.8600
81.2800,20.3200
80.0100,22.8600
Z" /> 
<path style="fill:none; 
stroke:#840000; stroke-width:0.2032; stroke-opacity:1; 
stroke-linecap:round; stroke-linejoin:round;fill:none"
d="M 80.0100,19.8120
80.0100,20.3200
82.5500,20.3200
82.5500,20.8280
" /> 
<path style="fill:none; 
stroke:#840000; stroke-width:0.1524; stroke-opacity:1; 
stroke-linecap:round; stroke-linejoin:round;fill:none"
d="M 81.2800,19.0500
81.2800,21.5900
" /> 
<path style="fill:none; 
stroke:#840000; stroke-width:0.2032; stroke-opacity:1; 
stroke-linecap:round; stroke-linejoin:round;fill:none"
d="M 80.0100,17.7800
82.5500,17.7800
81.2800,20.3200
Z" /> 
</g>
<g style="fill:none; 
stroke:#840000; stroke-width:0.1524; stroke-opacity:1; 
stroke-linecap:round; stroke-linejoin:round;">
<path d="M81.2800 21.5900
L81.2800 24.1300
" />
<path d="M81.2800 19.0500
L81.2800 16.5100
" />
</g>
<g style="fill:none; 
stroke:#006464; stroke-width:0.1524; stroke-opacity:1; 
stroke-linecap:round; stroke-linejoin:round;">
<text x="86.3804" y="19.6848"
textLength="5.1017" font-size="1.6933" lengthAdjust="spacingAndGlyphs"
text-anchor="middle" opacity="0" stroke-opacity="0">D601</text>
<g class="stroked-text"><desc>D601</desc>
<path d="M84.2335 19.6293
L84.2335 18.3593
" />
<path d="M84.2335 18.3593
L84.5359 18.3593
" />
<path d="M84.5359 18.3593
L84.7173 18.4198
" />
<path d="M84.7173 18.4198
L84.8383 18.5408
" />
<path d="M84.8383 18.5408
L84.8988 18.6617
" />
<path d="M84.8988 18.6617
L84.9592 18.9036
" />
<path d="M84.9592 18.9036
L84.9592 19.0850
" />
<path d="M84.9592 19.0850
L84.8988 19.3269
" />
<path d="M84.8988 19.3269
L84.8383 19.4479
" />
<path d="M84.8383 19.4479
L84.7173 19.5689
" />
<path d="M84.7173 19.5689
L84.5359 19.6293
" />
<path d="M84.5359 19.6293
L84.2335 19.6293
" />
<path d="M86.0478 18.3593
L85.8059 18.3593
" />
<path d="M85.8059 18.3593
L85.6850 18.4198
" />
<path d="M85.6850 18.4198
L85.6245 18.4803
" />
<path d="M85.6245 18.4803
L85.5035 18.6617
" />
<path d="M85.5035 18.6617
L85.4431 18.9036
" />
<path d="M85.4431 18.9036
L85.4431 19.3874
" />
<path d="M85.4431 19.3874
L85.5035 19.5084
" />
<path d="M85.5035 19.5084
L85.5640 19.5689
" />
<path d="M85.5640 19.5689
L85.6850 19.6293
" />
<path d="M85.6850 19.6293
L85.9269 19.6293
" />
<path d="M85.9269 19.6293
L86.0478 19.5689
" />
<path d="M86.0478 19.5689
L86.1083 19.5084
" />
<path d="M86.1083 19.5084
L86.1688 19.3874
" />
<path d="M86.1688 19.3874
L86.1688 19.0850
" />
<path d="M86.1688 19.0850
L86.1083 18.9641
" />
<path d="M86.1083 18.9641
L86.0478 18.9036
" />
<path d="M86.0478 18.9036
L85.9269 18.8431
" />
<path d="M85.9269 18.8431
L85.6850 18.8431
" />
<path d="M85.6850 18.8431
L85.5640 18.9036
" />
<path d="M85.5640 18.9036
L85.5035 18.9641
" />
<path d="M85.5035 18.9641
L85.4431 19.0850
" />
<path d="M86.9549 18.3593
L87.0759 18.3593
" />
<path d="M87.0759 18.3593
L87.1968 18.4198
" />
<path d="M87.1968 18.4198
L87.2573 18.4803
" />
<path d="M87.2573 18.4803
L87.3178 18.6012
" />
<path d="M87.3178 18.6012
L87.3783 18.8431
" />
<path d="M87.3783 18.8431
L87.3783 19.1455
" />
<path d="M87.3783 19.1455
L87.3178 19.3874
" />
<path d="M87.3178 19.3874
L87.2573 19.5084
" />
<path d="M87.2573 19.5084
L87.1968 19.5689
" />
<path d="M87.1968 19.5689
L87.0759 19.6293
" />
<path d="M87.0759 19.6293
L86.9549 19.6293
" />
<path d="M86.9549 19.6293
L86.8340 19.5689
" />
<path d="M86.8340 19.5689
L86.7735 19.5084
" />
<path d="M86.7735 19.5084
L86.7130 19.3874
" />
<path d="M86.7130 19.3874
L86.6526 19.1455
" />
<path d="M86.6526 19.1455
L86.6526 18.8431
" />
<path d="M86.6526 18.8431
L86.7130 18.6012
" />
<path d="M86.7130 18.6012
L86.7735 18.4803
" />
<path d="M86.7735 18.4803
L86.8340 18.4198
" />
<path d="M86.8340 18.4198
L86.9549 18.3593
" />
<path d="M88.5878 19.6293
L87.8621 19.6293
" />
<path d="M88.2249 19.6293
L88.2249 18.3593
" />
<path d="M88.2249 18.3593
L88.1040 18.5408
" />
<path d="M88.1040 18.5408
L87.9830 18.6617
" />
<path d="M87.9830 18.6617
L87.8621 18.7222
" />
</g><text x="88.6785" y="22.2248"
textLength="9.6979" font-size="1.6933" lengthAdjust="spacingAndGlyphs"
text-anchor="middle" opacity="0" stroke-opacity="0">SMAJ33CA</text>
<g class="stroked-text"><desc>SMAJ33CA</desc>
<path d="M84.1731 22.1089
L84.3545 22.1693
" />
<path d="M84.3545 22.1693
L84.6569 22.1693
" />
<path d="M84.6569 22.1693
L84.7778 22.1089
" />
<path d="M84.7778 22.1089
L84.8383 22.0484
" />
<path d="M84.8383 22.0484
L84.8988 21.9274
" />
<path d="M84.8988 21.9274
L84.8988 21.8065
" />
<path d="M84.8988 21.8065
L84.8383 21.6855
" />
<path d="M84.8383 21.6855
L84.7778 21.6250
" />
<path d="M84.7778 21.6250
L84.6569 21.5646
" />
<path d="M84.6569 21.5646
L84.4150 21.5041
" />
<path d="M84.4150 21.5041
L84.2940 21.4436
" />
<path d="M84.2940 21.4436
L84.2335 21.3831
" />
<path d="M84.2335 21.3831
L84.1731 21.2622
" />
<path d="M84.1731 21.2622
L84.1731 21.1412
" />
<path d="M84.1731 21.1412
L84.2335 21.0203
" />
<path d="M84.2335 21.0203
L84.2940 20.9598
" />
<path d="M84.2940 20.9598
L84.4150 20.8993
" />
<path d="M84.4150 20.8993
L84.7173 20.8993
" />
<path d="M84.7173 20.8993
L84.8988 20.9598
" />
<path d="M85.4430 22.1693
L85.4430 20.8993
" />
<path d="M85.4430 20.8993
L85.8664 21.8065
" />
<path d="M85.8664 21.8065
L86.2897 20.8993
" />
<path d="M86.2897 20.8993
L86.2897 22.1693
" />
<path d="M86.8340 21.8065
L87.4387 21.8065
" />
<path d="M86.7130 22.1693
L87.1363 20.8993
" />
<path d="M87.1363 20.8993
L87.5597 22.1693
" />
<path d="M88.3459 20.8993
L88.3459 21.8065
" />
<path d="M88.3459 21.8065
L88.2854 21.9879
" />
<path d="M88.2854 21.9879
L88.1645 22.1089
" />
<path d="M88.1645 22.1089
L87.9830 22.1693
" />
<path d="M87.9830 22.1693
L87.8621 22.1693
" />
<path d="M88.8297 20.8993
L89.6159 20.8993
" />
<path d="M89.6159 20.8993
L89.1925 21.3831
" />
<path d="M89.1925 21.3831
L89.3740 21.3831
" />
<path d="M89.3740 21.3831
L89.4949 21.4436
" />
<path d="M89.4949 21.4436
L89.5554 21.5041
" />
<path d="M89.5554 21.5041
L89.6159 21.6250
" />
<path d="M89.6159 21.6250
L89.6159 21.9274
" />
<path d="M89.6159 21.9274
L89.5554 22.0484
" />
<path d="M89.5554 22.0484
L89.4949 22.1089
" />
<path d="M89.4949 22.1089
L89.3740 22.1693
" />
<path d="M89.3740 22.1693
L89.0111 22.1693
" />
<path d="M89.0111 22.1693
L88.8902 22.1089
" />
<path d="M88.8902 22.1089
L88.8297 22.0484
" />
<path d="M90.0392 20.8993
L90.8254 20.8993
" />
<path d="M90.8254 20.8993
L90.4020 21.3831
" />
<path d="M90.4020 21.3831
L90.5835 21.3831
" />
<path d="M90.5835 21.3831
L90.7044 21.4436
" />
<path d="M90.7044 21.4436
L90.7649 21.5041
" />
<path d="M90.7649 21.5041
L90.8254 21.6250
" />
<path d="M90.8254 21.6250
L90.8254 21.9274
" />
<path d="M90.8254 21.9274
L90.7649 22.0484
" />
<path d="M90.7649 22.0484
L90.7044 22.1089
" />
<path d="M90.7044 22.1089
L90.5835 22.1693
" />
<path d="M90.5835 22.1693
L90.2206 22.1693
" />
<path d="M90.2206 22.1693
L90.0997 22.1089
" />
<path d="M90.0997 22.1089
L90.0392 22.0484
" />
<path d="M92.0953 22.0484
L92.0349 22.1089
" />
<path d="M92.0349 22.1089
L91.8534 22.1693
" />
<path d="M91.8534 22.1693
L91.7325 22.1693
" />
<path d="M91.7325 22.1693
L91.5511 22.1089
" />
<path d="M91.5511 22.1089
L91.4301 21.9879
" />
<path d="M91.4301 21.9879
L91.3696 21.8669
" />
<path d="M91.3696 21.8669
L91.3092 21.6250
" />
<path d="M91.3092 21.6250
L91.3092 21.4436
" />
<path d="M91.3092 21.4436
L91.3696 21.2017
" />
<path d="M91.3696 21.2017
L91.4301 21.0808
" />
<path d="M91.4301 21.0808
L91.5511 20.9598
" />
<path d="M91.5511 20.9598
L91.7325 20.8993
" />
<path d="M91.7325 20.8993
L91.8534 20.8993
" />
<path d="M91.8534 20.8993
L92.0349 20.9598
" />
<path d="M92.0349 20.9598
L92.0953 21.0203
" />
<path d="M92.5792 21.8065
L93.1839 21.8065
" />
<path d="M92.4582 22.1693
L92.8815 20.8993
" />
<path d="M92.8815 20.8993
L93.3049 22.1693
" />
</g></g>
<g style="fill:none; 
stroke:#840000; stroke-width:0.2540; stroke-opacity:1; 
stroke-linecap:round; stroke-linejoin:round;">
<rect x="27.940000" y="9.144000" width="5.080000" height="2.032000" rx="0.000000" />
</g>
<g style="fill:none; 
stroke:#840000; stroke-width:0.1524; stroke-opacity:1; 
stroke-linecap:round; stroke-linejoin:round;">
<path d="M27.9400 10.1600
L26.6700 10.1600
" />
<path d="M33.0200 10.1600
L34.2900 10.1600
" />
</g>
<g style="fill:none; 
stroke:#006464; stroke-width:0.1524; stroke-opacity:1; 
stroke-linecap:round; stroke-linejoin:round;">
<text x="30.4799" y="4.4449"
textLength="5.1017" font-size="1.6933" lengthAdjust="spacingAndGlyphs"
text-anchor="middle" opacity="0" stroke-opacity="0">R601</text>
<g class="stroked-text"><desc>R601</desc>
<path d="M29.0587 4.3894
L28.6354 3.7847
" />
<path d="M28.3330 4.3894
L28.3330 3.1194
" />
<path d="M28.3330 3.1194
L28.8168 3.1194
" />
<path d="M28.8168 3.1194
L28.9378 3.1799
" />
<path d="M28.9378 3.1799
L28.9983 3.2404
" />
<path d="M28.9983 3.2404
L29.0587 3.3613
" />
<path d="M29.0587 3.3613
L29.0587 3.5428
" />
<path d="M29.0587 3.5428
L28.9983 3.6637
" />
<path d="M28.9983 3.6637
L28.9378 3.7242
" />
<path d="M28.9378 3.7242
L28.8168 3.7847
" />
<path d="M28.8168 3.7847
L28.3330 3.7847
" />
<path d="M30.1473 3.1194
L29.9054 3.1194
" />
<path d="M29.9054 3.1194
L29.7845 3.1799
" />
<path d="M29.7845 3.1799
L29.7240 3.2404
" />
<path d="M29.7240 3.2404
L29.6030 3.4218
" />
<path d="M29.6030 3.4218
L29.5426 3.6637
" />
<path d="M29.5426 3.6637
L29.5426 4.1475
" />
<path d="M29.5426 4.1475
L29.6030 4.2685
" />
<path d="M29.6030 4.2685
L29.6635 4.3290
" />
<path d="M29.6635 4.3290
L29.7845 4.3894
" />
<path d="M29.7845 4.3894
L30.0264 4.3894
" />
<path d="M30.0264 4.3894
L30.1473 4.3290
" />
<path d="M30.1473 4.3290
L30.2078 4.2685
" />
<path d="M30.2078 4.2685
L30.2683 4.1475
" />
<path d="M30.2683 4.1475
L30.2683 3.8451
" />
<path d="M30.2683 3.8451
L30.2078 3.7242
" />
<path d="M30.2078 3.7242
L30.1473 3.6637
" />
<path d="M30.1473 3.6637
L30.0264 3.6032
" />
<path d="M30.0264 3.6032
L29.7845 3.6032
" />
<path d="M29.7845 3.6032
L29.6635 3.6637
" />
<path d="M29.6635 3.6637
L29.6030 3.7242
" />
<path d="M29.6030 3.7242
L29.5426 3.8451
" />
<path d="M31.0544 3.1194
L31.1754 3.1194
" />
<path d="M31.1754 3.1194
L31.2963 3.1799
" />
<path d="M31.2963 3.1799
L31.3568 3.2404
" />
<path d="M31.3568 3.2404
L31.4173 3.3613
" />
<path d="M31.4173 3.3613
L31.4778 3.6032
" />
<path d="M31.4778 3.6032
L31.4778 3.9056
" />
<path d="M31.4778 3.9056
L31.4173 4.1475
" />
<path d="M31.4173 4.1475
L31.3568 4.2685
" />
<path d="M31.3568 4.2685
L31.2963 4.3290
" />
<path d="M31.2963 4.3290
L31.1754 4.3894
" />
<path d="M31.1754 4.3894
L31.0544 4.3894
" />
<path d="M31.0544 4.3894
L30.9335 4.3290
" />
<path d="M30.9335 4.3290
L30.8730 4.2685
" />
<path d="M30.8730 4.2685
L30.8125 4.1475
" />
<path d="M30.8125 4.1475
L30.7521 3.9056
" />
<path d="M30.7521 3.9056
L30.7521 3.6032
" />
<path d="M30.7521 3.6032
L30.8125 3.3613
" />
<path d="M30.8125 3.3613
L30.8730 3.2404
" />
<path d="M30.8730 3.2404
L30.9335 3.1799
" />
<path d="M30.9335 3.1799
L31.0544 3.1194
" />
<path d="M32.6873 4.3894
L31.9616 4.3894
" />
<path d="M32.3244 4.3894
L32.3244 3.1194
" />
<path d="M32.3244 3.1194
L32.2035 3.3009
" />
<path d="M32.2035 3.3009
L32.0825 3.4218
" />
<path d="M32.0825 3.4218
L31.9616 3.4823
" />
</g><text x="30.4799" y="6.9849"
textLength="5.1017" font-size="1.6933" lengthAdjust="spacingAndGlyphs"
text-anchor="middle" opacity="0" stroke-opacity="0">330R</text>
<g class="stroked-text"><desc>330R</desc>
<path d="M28.2121 5.6594
L28.9983 5.6594
" />
<path d="M28.9983 5.6594
L28.5749 6.1432
" />
<path d="M28.5749 6.1432
L28.7564 6.1432
" />
<path d="M28.7564 6.1432
L28.8773 6.2037
" />
<path d="M28.8773 6.2037
L28.9378 6.2642
" />
<path d="M28.9378 6.2642
L28.9983 6.3851
" />
<path d="M28.9983 6.3851
L28.9983 6.6875
" />
<path d="M28.9983 6.6875
L28.9378 6.8085
" />
<path d="M28.9378 6.8085
L28.8773 6.8690
" />
<path d="M28.8773 6.8690
L28.7564 6.9294
" />
<path d="M28.7564 6.9294
L28.3935 6.9294
" />
<path d="M28.3935 6.9294
L28.2726 6.8690
" />
<path d="M28.2726 6.8690
L28.2121 6.8085
" />
<path d="M29.4216 5.6594
L30.2078 5.6594
" />
<path d="M30.2078 5.6594
L29.7844 6.1432
" />
<path d="M29.7844 6.1432
L29.9659 6.1432
" />
<path d="M29.9659 6.1432
L30.0868 6.2037
" />
<path d="M30.0868 6.2037
L30.1473 6.2642
" />
<path d="M30.1473 6.2642
L30.2078 6.3851
" />
<path d="M30.2078 6.3851
L30.2078 6.6875
" />
<path d="M30.2078 6.6875
L30.1473 6.8085
" />
<path d="M30.1473 6.8085
L30.0868 6.8690
" />
<path d="M30.0868 6.8690
L29.9659 6.9294
" />
<path d="M29.9659 6.9294
L29.6030 6.9294
" />
<path d="M29.6030 6.9294
L29.4821 6.8690
" />
<path d="M29.4821 6.8690
L29.4216 6.8085
" />
<path d="M30.9939 5.6594
L31.1149 5.6594
" />
<path d="M31.1149 5.6594
L31.2358 5.7199
" />
<path d="M31.2358 5.7199
L31.2963 5.7804
" />
<path d="M31.2963 5.7804
L31.3568 5.9013
" />
<path d="M31.3568 5.9013
L31.4173 6.1432
" />
<path d="M31.4173 6.1432
L31.4173 6.4456
" />
<path d="M31.4173 6.4456
L31.3568 6.6875
" />
<path d="M31.3568 6.6875
L31.2963 6.8085
" />
<path d="M31.2963 6.8085
L31.2358 6.8690
" />
<path d="M31.2358 6.8690
L31.1149 6.9294
" />
<path d="M31.1149 6.9294
L30.9939 6.9294
" />
<path d="M30.9939 6.9294
L30.8730 6.8690
" />
<path d="M30.8730 6.8690
L30.8125 6.8085
" />
<path d="M30.8125 6.8085
L30.7520 6.6875
" />
<path d="M30.7520 6.6875
L30.6916 6.4456
" />
<path d="M30.6916 6.4456
L30.6916 6.1432
" />
<path d="M30.6916 6.1432
L30.7520 5.9013
" />
<path d="M30.7520 5.9013
L30.8125 5.7804
" />
<path d="M30.8125 5.7804
L30.8730 5.7199
" />
<path d="M30.8730 5.7199
L30.9939 5.6594
" />
<path d="M32.6872 6.9294
L32.2639 6.3247
" />
<path d="M31.9615 6.9294
L31.9615 5.6594
" />
<path d="M31.9615 5.6594
L32.4453 5.6594
" />
<path d="M32.4453 5.6594
L32.5663 5.7199
" />
<path d="M32.5663 5.7199
L32.6268 5.7804
" />
<path d="M32.6268 5.7804
L32.6872 5.9013
" />
<path d="M32.6872 5.9013
L32.6872 6.0828
" />
<path d="M32.6872 6.0828
L32.6268 6.2037
" />
<path d="M32.6268 6.2037
L32.5663 6.2642
" />
<path d="M32.5663 6.2642
L32.4453 6.3247
" />
<path d="M32.4453 6.3247
L31.9615 6.3247
" />
</g><path style="fill:none; 
stroke:#840000; stroke-width:0.1524; stroke-opacity:1; 
stroke-linecap:round; stroke-linejoin:round;fill:none"
d="M 60.1980,6.3500
60.9600,5.0800
" /> 
<path style="fill:none; 
stroke:#840000; stroke-width:0.1524; stroke-opacity:1; 
stroke-linecap:round; stroke-linejoin:round;fill:none"
d="M 60.9600,5.0800
61.7220,6.3500
" /> 
<path style="fill:none; 
stroke:#840000; stroke-width:0.1524; stroke-opacity:1; 
stroke-linecap:round; stroke-linejoin:round;fill:none"
d="M 60.9600,7.6200
60.9600,5.0800
" /> 
</g>
<g style="fill:none; 
stroke:#840000; stroke-width:0.1524; stroke-opacity:1; 
stroke-linecap:round; stroke-linejoin:round;">
<path d="M60.9600 7.6200
L60.9600 7.6200
" />
</g>
<g style="fill:none; 
stroke:#006464; stroke-width:0.1524; stroke-opacity:1; 
stroke-linecap:round; stroke-linejoin:round;">
<text x="60.9600" y="3.1750"
textLength="4.0737" font-size="1.6933" lengthAdjust="spacingAndGlyphs"
text-anchor="middle" opacity="0" stroke-opacity="0">+5V</text>
<g class="stroked-text"><desc>+5V</desc>
<path d="M59.3271 2.6357
L60.2948 2.6357
" />
<path d="M59.8109 3.1195
L59.8109 2.1519
" />
<path d="M61.5043 1.8495
L60.8995 1.8495
" />
<path d="M60.8995 1.8495
L60.8391 2.4543
" />
<path d="M60.8391 2.4543
L60.8995 2.3938
" />
<path d="M60.8995 2.3938
L61.0205 2.3333
" />
<path d="M61.0205 2.3333
L61.3229 2.3333
" />
<path d="M61.3229 2.3333
L61.4438 2.3938
" />
<path d="M61.4438 2.3938
L61.5043 2.4543
" />
<path d="M61.5043 2.4543
L61.5648 2.5752
" />
<path d="M61.5648 2.5752
L61.5648 2.8776
" />
<path d="M61.5648 2.8776
L61.5043 2.9986
" />
<path d="M61.5043 2.9986
L61.4438 3.0591
" />
<path d="M61.4438 3.0591
L61.3229 3.1195
" />
<path d="M61.3229 3.1195
L61.0205 3.1195
" />
<path d="M61.0205 3.1195
L60.8995 3.0591
" />
<path d="M60.8995 3.0591
L60.8391 2.9986
" />
<path d="M61.9276 1.8495
L62.3509 3.1195
" />
<path d="M62.3509 3.1195
L62.7743 1.8495
" />
</g></g>
<g style="fill:none; 
stroke:#840000; stroke-width:0.2540; stroke-opacity:1; 
stroke-linecap:round; stroke-linejoin:round;">
<rect x="71.120000" y="9.144000" width="5.080000" height="2.032000" rx="0.000000" />
</g>
<g style="fill:none; 
stroke:#840000; stroke-width:0.1524; stroke-opacity:1; 
stroke-linecap:round; stroke-linejoin:round;">
<path d="M71.1200 10.1600
L69.8500 10.1600
" />
<path d="M76.2000 10.1600
L77.4700 10.1600
" />
</g>
<g style="fill:none; 
stroke:#006464; stroke-width:0.1524; stroke-opacity:1; 
stroke-linecap:round; stroke-linejoin:round;">
<text x="73.6599" y="4.4449"
textLength="5.1017" font-size="1.6933" lengthAdjust="spacingAndGlyphs"
text-anchor="middle" opacity="0" stroke-opacity="0">R603</text>
<g class="stroked-text"><desc>R603</desc>
<path d="M72.2387 4.3894
L71.8154 3.7847
" />
<path d="M71.5130 4.3894
L71.5130 3.1194
" />
<path d="M71.5130 3.1194
L71.9968 3.1194
" />
<path d="M71.9968 3.1194
L72.1178 3.1799
" />
<path d="M72.1178 3.1799
L72.1783 3.2404
" />
<path d="M72.1783 3.2404
L72.2387 3.3613
" />
<path d="M72.2387 3.3613
L72.2387 3.5428
" />
<path d="M72.2387 3.5428
L72.1783 3.6637
" />
<path d="M72.1783 3.6637
L72.1178 3.7242
" />
<path d="M72.1178 3.7242
L71.9968 3.7847
" />
<path d="M71.9968 3.7847
L71.5130 3.7847
" />
<path d="M73.3273 3.1194
L73.0854 3.1194
" />
<path d="M73.0854 3.1194
L72.9645 3.1799
" />
<path d="M72.9645 3.1799
L72.9040 3.2404
" />
<path d="M72.9040 3.2404
L72.7830 3.4218
" />
<path d="M72.7830 3.4218
L72.7226 3.6637
" />
<path d="M72.7226 3.6637
L72.7226 4.1475
" />
<path d="M72.7226 4.1475
L72.7830 4.2685
" />
<path d="M72.7830 4.2685
L72.8435 4.3290
" />
<path d="M72.8435 4.3290
L72.9645 4.3894
" />
<path d="M72.9645 4.3894
L73.2064 4.3894
" />
<path d="M73.2064 4.3894
L73.3273 4.3290
" />
<path d="M73.3273 4.3290
L73.3878 4.2685
" />
<path d="M73.3878 4.2685
L73.4483 4.1475
" />
<path d="M73.4483 4.1475
L73.4483 3.8451
" />
<path d="M73.4483 3.8451
L73.3878 3.7242
" />
<path d="M73.3878 3.7242
L73.3273 3.6637
" />
<path d="M73.3273 3.6637
L73.2064 3.6032
" />
<path d="M73.2064 3.6032
L72.9645 3.6032
" />
<path d="M72.9645 3.6032
L72.8435 3.6637
" />
<path d="M72.8435 3.6637
L72.7830 3.7242
" />
<path d="M72.7830 3.7242
L72.7226 3.8451
" />
<path d="M74.2344 3.1194
L74.3554 3.1194
" />
<path d="M74.3554 3.1194
L74.4763 3.1799
" />
<path d="M74.4763 3.1799
L74.5368 3.2404
" />
<path d="M74.5368 3.2404
L74.5973 3.3613
" />
<path d="M74.5973 3.3613
L74.6578 3.6032
" />
<path d="M74.6578 3.6032
L74.6578 3.9056
" />
<path d="M74.6578 3.9056
L74.5973 4.1475
" />
<path d="M74.5973 4.1475
L74.5368 4.2685
" />
<path d="M74.5368 4.2685
L74.4763 4.3290
" />
<path d="M74.4763 4.3290
L74.3554 4.3894
" />
<path d="M74.3554 4.3894
L74.2344 4.3894
" />
<path d="M74.2344 4.3894
L74.1135 4.3290
" />
<path d="M74.1135 4.3290
L74.0530 4.2685
" />
<path d="M74.0530 4.2685
L73.9925 4.1475
" />
<path d="M73.9925 4.1475
L73.9321 3.9056
" />
<path d="M73.9321 3.9056
L73.9321 3.6032
" />
<path d="M73.9321 3.6032
L73.9925 3.3613
" />
<path d="M73.9925 3.3613
L74.0530 3.2404
" />
<path d="M74.0530 3.2404
L74.1135 3.1799
" />
<path d="M74.1135 3.1799
L74.2344 3.1194
" />
<path d="M75.0811 3.1194
L75.8673 3.1194
" />
<path d="M75.8673 3.1194
L75.4439 3.6032
" />
<path d="M75.4439 3.6032
L75.6254 3.6032
" />
<path d="M75.6254 3.6032
L75.7463 3.6637
" />
<path d="M75.7463 3.6637
L75.8068 3.7242
" />
<path d="M75.8068 3.7242
L75.8673 3.8451
" />
<path d="M75.8673 3.8451
L75.8673 4.1475
" />
<path d="M75.8673 4.1475
L75.8068 4.2685
" />
<path d="M75.8068 4.2685
L75.7463 4.3290
" />
<path d="M75.7463 4.3290
L75.6254 4.3894
" />
<path d="M75.6254 4.3894
L75.2625 4.3894
" />
<path d="M75.2625 4.3894
L75.1416 4.3290
" />
<path d="M75.1416 4.3290
L75.0811 4.2685
" />
</g><text x="73.6599" y="6.9849"
textLength="5.1017" font-size="1.6933" lengthAdjust="spacingAndGlyphs"
text-anchor="middle" opacity="0" stroke-opacity="0">330R</text>
<g class="stroked-text"><desc>330R</desc>
<path d="M71.3921 5.6594
L72.1783 5.6594
" />
<path d="M72.1783 5.6594
L71.7549 6.1432
" />
<path d="M71.7549 6.1432
L71.9364 6.1432
" />
<path d="M71.9364 6.1432
L72.0573 6.2037
" />
<path d="M72.0573 6.2037
L72.1178 6.2642
" />
<path d="M72.1178 6.2642
L72.1783 6.3851
" />
<path d="M72.1783 6.3851
L72.1783 6.6875
" />
<path d="M72.1783 6.6875
L72.1178 6.8085
" />
<path d="M72.1178 6.8085
L72.0573 6.8690
" />
<path d="M72.0573 6.8690
L71.9364 6.9294
" />
<path d="M71.9364 6.9294
L71.5735 6.9294
" />
<path d="M71.5735 6.9294
L71.4526 6.8690
" />
<path d="M71.4526 6.8690
L71.3921 6.8085
" />
<path d="M72.6016 5.6594
L73.3878 5.6594
" />
<path d="M73.3878 5.6594
L72.9644 6.1432
" />
<path d="M72.9644 6.1432
L73.1459 6.1432
" />
<path d="M73.1459 6.1432
L73.2668 6.2037
" />
<path d="M73.2668 6.2037
L73.3273 6.2642
" />
<path d="M73.3273 6.2642
L73.3878 6.3851
" />
<path d="M73.3878 6.3851
L73.3878 6.6875
" />
<path d="M73.3878 6.6875
L73.3273 6.8085
" />
<path d="M73.3273 6.8085
L73.2668 6.8690
" />
<path d="M73.2668 6.8690
L73.1459 6.9294
" />
<path d="M73.1459 6.9294
L72.7830 6.9294
" />
<path d="M72.7830 6.9294
L72.6621 6.8690
" />
<path d="M72.6621 6.8690
L72.6016 6.8085
" />
<path d="M74.1739 5.6594
L74.2949 5.6594
" />
<path d="M74.2949 5.6594
L74.4158 5.7199
" />
<path d="M74.4158 5.7199
L74.4763 5.7804
" />
<path d="M74.4763 5.7804
L74.5368 5.9013
" />
<path d="M74.5368 5.9013
L74.5973 6.1432
" />
<path d="M74.5973 6.1432
L74.5973 6.4456
" />
<path d="M74.5973 6.4456
L74.5368 6.6875
" />
<path d="M74.5368 6.6875
L74.4763 6.8085
" />
<path d="M74.4763 6.8085
L74.4158 6.8690
" />
<path d="M74.4158 6.8690
L74.2949 6.9294
" />
<path d="M74.2949 6.9294
L74.1739 6.9294
" />
<path d="M74.1739 6.9294
L74.0530 6.8690
" />
<path d="M74.0530 6.8690
L73.9925 6.8085
" />
<path d="M73.9925 6.8085
L73.9320 6.6875
" />
<path d="M73.9320 6.6875
L73.8716 6.4456
" />
<path d="M73.8716 6.4456
L73.8716 6.1432
" />
<path d="M73.8716 6.1432
L73.9320 5.9013
" />
<path d="M73.9320 5.9013
L73.9925 5.7804
" />
<path d="M73.9925 5.7804
L74.0530 5.7199
" />
<path d="M74.0530 5.7199
L74.1739 5.6594
" />
<path d="M75.8672 6.9294
L75.4439 6.3247
" />
<path d="M75.1415 6.9294
L75.1415 5.6594
" />
<path d="M75.1415 5.6594
L75.6253 5.6594
" />
<path d="M75.6253 5.6594
L75.7463 5.7199
" />
<path d="M75.7463 5.7199
L75.8068 5.7804
" />
<path d="M75.8068 5.7804
L75.8672 5.9013
" />
<path d="M75.8672 5.9013
L75.8672 6.0828
" />
<path d="M75.8672 6.0828
L75.8068 6.2037
" />
<path d="M75.8068 6.2037
L75.7463 6.2642
" />
<path d="M75.7463 6.2642
L75.6253 6.3247
" />
<path d="M75.6253 6.3247
L75.1415 6.3247
" />
</g><path style="fill:none; 
stroke:#840000; stroke-width:0.5080; stroke-opacity:1; 
stroke-linecap:round; stroke-linejoin:round;fill:none"
d="M 18.2880,19.5580
22.3520,19.5580
" /> 
<path style="fill:none; 
stroke:#840000; stroke-width:0.5080; stroke-opacity:1; 
stroke-linecap:round; stroke-linejoin:round;fill:none"
d="M 18.2880,21.0820
22.3520,21.0820
" /> 
</g>
<g style="fill:none; 
stroke:#840000; stroke-width:0.1524; stroke-opacity:1; 
stroke-linecap:round; stroke-linejoin:round;">
<path d="M20.3200 19.3040
L20.3200 16.5100
" />
<path d="M20.3200 21.3360
L20.3200 24.1300
" />
</g>
<g style="fill:none; 
stroke:#006464; stroke-width:0.1524; stroke-opacity:1; 
stroke-linecap:round; stroke-linejoin:round;">
<text x="26.6904" y="19.6849"
textLength="5.1017" font-size="1.6933" lengthAdjust="spacingAndGlyphs"
text-anchor="middle" opacity="0" stroke-opacity="0">C601</text>
<g class="stroked-text"><desc>C601</desc>
<path d="M25.2692 19.5085
L25.2088 19.5690
" />
<path d="M25.2088 19.5690
L25.0273 19.6294
" />
<path d="M25.0273 19.6294
L24.9064 19.6294
" />
<path d="M24.9064 19.6294
L24.7250 19.5690
" />
<path d="M24.7250 19.5690
L24.6040 19.4480
" />
<path d="M24.6040 19.4480
L24.5435 19.3270
" />
<path d="M24.5435 19.3270
L24.4831 19.0851
" />
<path d="M24.4831 19.0851
L24.4831 18.9037
" />
<path d="M24.4831 18.9037
L24.5435 18.6618
" />
<path d="M24.5435 18.6618
L24.6040 18.5409
" />
<path d="M24.6040 18.5409
L24.7250 18.4199
" />
<path d="M24.7250 18.4199
L24.9064 18.3594
" />
<path d="M24.9064 18.3594
L25.0273 18.3594
" />
<path d="M25.0273 18.3594
L25.2088 18.4199
" />
<path d="M25.2088 18.4199
L25.2692 18.4804
" />
<path d="M26.3578 18.3594
L26.1159 18.3594
" />
<path d="M26.1159 18.3594
L25.9950 18.4199
" />
<path d="M25.9950 18.4199
L25.9345 18.4804
" />
<path d="M25.9345 18.4804
L25.8135 18.6618
" />
<path d="M25.8135 18.6618
L25.7531 18.9037
" />
<path d="M25.7531 18.9037
L25.7531 19.3875
" />
<path d="M25.7531 19.3875
L25.8135 19.5085
" />
<path d="M25.8135 19.5085
L25.8740 19.5690
" />
<path d="M25.8740 19.5690
L25.9950 19.6294
" />
<path d="M25.9950 19.6294
L26.2369 19.6294
" />
<path d="M26.2369 19.6294
L26.3578 19.5690
" />
<path d="M26.3578 19.5690
L26.4183 19.5085
" />
<path d="M26.4183 19.5085
L26.4788 19.3875
" />
<path d="M26.4788 19.3875
L26.4788 19.0851
" />
<path d="M26.4788 19.0851
L26.4183 18.9642
" />
<path d="M26.4183 18.9642
L26.3578 18.9037
" />
<path d="M26.3578 18.9037
L26.2369 18.8432
" />
<path d="M26.2369 18.8432
L25.9950 18.8432
" />
<path d="M25.9950 18.8432
L25.8740 18.9037
" />
<path d="M25.8740 18.9037
L25.8135 18.9642
" />
<path d="M25.8135 18.9642
L25.7531 19.0851
" />
<path d="M27.2649 18.3594
L27.3859 18.3594
" />
<path d="M27.3859 18.3594
L27.5068 18.4199
" />
<path d="M27.5068 18.4199
L27.5673 18.4804
" />
<path d="M27.5673 18.4804
L27.6278 18.6013
" />
<path d="M27.6278 18.6013
L27.6883 18.8432
" />
<path d="M27.6883 18.8432
L27.6883 19.1456
" />
<path d="M27.6883 19.1456
L27.6278 19.3875
" />
<path d="M27.6278 19.3875
L27.5673 19.5085
" />
<path d="M27.5673 19.5085
L27.5068 19.5690
" />
<path d="M27.5068 19.5690
L27.3859 19.6294
" />
<path d="M27.3859 19.6294
L27.2649 19.6294
" />
<path d="M27.2649 19.6294
L27.1440 19.5690
" />
<path d="M27.1440 19.5690
L27.0835 19.5085
" />
<path d="M27.0835 19.5085
L27.0230 19.3875
" />
<path d="M27.0230 19.3875
L26.9626 19.1456
" />
<path d="M26.9626 19.1456
L26.9626 18.8432
" />
<path d="M26.9626 18.8432
L27.0230 18.6013
" />
<path d="M27.0230 18.6013
L27.0835 18.4804
" />
<path d="M27.0835 18.4804
L27.1440 18.4199
" />
<path d="M27.1440 18.4199
L27.2649 18.3594
" />
<path d="M28.8978 19.6294
L28.1721 19.6294
" />
<path d="M28.5349 19.6294
L28.5349 18.3594
" />
<path d="M28.5349 18.3594
L28.4140 18.5409
" />
<path d="M28.4140 18.5409
L28.2930 18.6618
" />
<path d="M28.2930 18.6618
L28.1721 18.7223
" />
</g><text x="25.9647" y="22.2249"
textLength="3.6503" font-size="1.6933" lengthAdjust="spacingAndGlyphs"
text-anchor="middle" opacity="0" stroke-opacity="0">1uF</text>
<g class="stroked-text"><desc>1uF</desc>
<path d="M25.2088 22.1694
L24.4831 22.1694
" />
<path d="M24.8459 22.1694
L24.8459 20.8994
" />
<path d="M24.8459 20.8994
L24.7250 21.0809
" />
<path d="M24.7250 21.0809
L24.6040 21.2018
" />
<path d="M24.6040 21.2018
L24.4831 21.2623
" />
<path d="M26.2973 21.3228
L26.2973 22.1694
" />
<path d="M25.7530 21.3228
L25.7530 21.9880
" />
<path d="M25.7530 21.9880
L25.8135 22.1090
" />
<path d="M25.8135 22.1090
L25.9345 22.1694
" />
<path d="M25.9345 22.1694
L26.1159 22.1694
" />
<path d="M26.1159 22.1694
L26.2368 22.1090
" />
<path d="M26.2368 22.1090
L26.2973 22.0485
" />
<path d="M27.3254 21.5042
L26.9020 21.5042
" />
<path d="M26.9020 22.1694
L26.9020 20.8994
" />
<path d="M26.9020 20.8994
L27.5068 20.8994
" />
</g><path style="fill:none; 
stroke:#840000; stroke-width:0.1524; stroke-opacity:1; 
stroke-linecap:round; stroke-linejoin:round;fill:none"
d="M 38.1000,30.4800
38.1000,31.7500
39.3700,31.7500
38.1000,33.0200
36.8300,31.7500
38.1000,31.7500
" /> 
</g>
<g style="fill:none; 
stroke:#840000; stroke-width:0.1524; stroke-opacity:1; 
stroke-linecap:round; stroke-linejoin:round;">
<path d="M38.1000 30.4800
L38.1000 30.4800
" />
</g>
<g style="fill:none; 
stroke:#006464; stroke-width:0.1524; stroke-opacity:1; 
stroke-linecap:round; stroke-linejoin:round;">
<text x="38.1000" y="36.1950"
textLength="4.0737" font-size="1.6933" lengthAdjust="spacingAndGlyphs"
text-anchor="middle" opacity="0" stroke-opacity="0">GND</text>
<g class="stroked-text"><desc>GND</desc>
<path d="M37.1324 34.9300
L37.0114 34.8695
" />
<path d="M37.0114 34.8695
L36.8300 34.8695
" />
<path d="M36.8300 34.8695
L36.6486 34.9300
" />
<path d="M36.6486 34.9300
L36.5276 35.0510
" />
<path d="M36.5276 35.0510
L36.4671 35.1719
" />
<path d="M36.4671 35.1719
L36.4067 35.4138
" />
<path d="M36.4067 35.4138
L36.4067 35.5952
" />
<path d="M36.4067 35.5952
L36.4671 35.8371
" />
<path d="M36.4671 35.8371
L36.5276 35.9581
" />
<path d="M36.5276 35.9581
L36.6486 36.0791
" />
<path d="M36.6486 36.0791
L36.8300 36.1395
" />
<path d="M36.8300 36.1395
L36.9509 36.1395
" />
<path d="M36.9509 36.1395
L37.1324 36.0791
" />
<path d="M37.1324 36.0791
L37.1928 36.0186
" />
<path d="M37.1928 36.0186
L37.1928 35.5952
" />
<path d="M37.1928 35.5952
L36.9509 35.5952
" />
<path d="M37.7371 36.1395
L37.7371 34.8695
" />
<path d="M37.7371 34.8695
L38.4628 36.1395
" />
<path d="M38.4628 36.1395
L38.4628 34.8695
" />
<path d="M39.0676 36.1395
L39.0676 34.8695
" />
<path d="M39.0676 34.8695
L39.3700 34.8695
" />
<path d="M39.3700 34.8695
L39.5514 34.9300
" />
<path d="M39.5514 34.9300
L39.6724 35.0510
" />
<path d="M39.6724 35.0510
L39.7329 35.1719
" />
<path d="M39.7329 35.1719
L39.7933 35.4138
" />
<path d="M39.7933 35.4138
L39.7933 35.5952
" />
<path d="M39.7933 35.5952
L39.7329 35.8371
" />
<path d="M39.7329 35.8371
L39.6724 35.9581
" />
<path d="M39.6724 35.9581
L39.5514 36.0791
" />
<path d="M39.5514 36.0791
L39.3700 36.1395
" />
<path d="M39.3700 36.1395
L39.0676 36.1395
" />
</g></g>
<g style="fill:none; 
stroke:#0F0F0F; stroke-width:0.1524; stroke-opacity:1; 
stroke-linecap:round; stroke-linejoin:round;">
<text x="91.4400" y="9.8107"
textLength="4.9807" font-size="1.6933" lengthAdjust="spacingAndGlyphs"
text-anchor="end" opacity="0" stroke-opacity="0">Input</text>
<g class="stroked-text"><desc>Input</desc>
<path d="M86.8646 9.6472
L86.8646 8.3772
" />
<path d="M87.4694 8.8006
L87.4694 9.6472
" />
<path d="M87.4694 8.9215
L87.5299 8.8610
" />
<path d="M87.5299 8.8610
L87.6509 8.8006
" />
<path d="M87.6509 8.8006
L87.8323 8.8006
" />
<path d="M87.8323 8.8006
L87.9532 8.8610
" />
<path d="M87.9532 8.8610
L88.0137 8.9820
" />
<path d="M88.0137 8.9820
L88.0137 9.6472
" />
<path d="M88.6184 8.8006
L88.6184 10.0706
" />
<path d="M88.6184 8.8610
L88.7394 8.8006
" />
<path d="M88.7394 8.8006
L88.9813 8.8006
" />
<path d="M88.9813 8.8006
L89.1022 8.8610
" />
<path d="M89.1022 8.8610
L89.1627 8.9215
" />
<path d="M89.1627 8.9215
L89.2232 9.0425
" />
<path d="M89.2232 9.0425
L89.2232 9.4053
" />
<path d="M89.2232 9.4053
L89.1627 9.5263
" />
<path d="M89.1627 9.5263
L89.1022 9.5868
" />
<path d="M89.1022 9.5868
L88.9813 9.6472
" />
<path d="M88.9813 9.6472
L88.7394 9.6472
" />
<path d="M88.7394 9.6472
L88.6184 9.5868
" />
<path d="M90.3117 8.8006
L90.3117 9.6472
" />
<path d="M89.7674 8.8006
L89.7674 9.4658
" />
<path d="M89.7674 9.4658
L89.8279 9.5868
" />
<path d="M89.8279 9.5868
L89.9489 9.6472
" />
<path d="M89.9489 9.6472
L90.1303 9.6472
" />
<path d="M90.1303 9.6472
L90.2512 9.5868
" />
<path d="M90.2512 9.5868
L90.3117 9.5263
" />
<path d="M90.7350 8.8006
L91.2188 8.8006
" />
<path d="M90.9164 8.3772
L90.9164 9.4658
" />
<path d="M90.9164 9.4658
L90.9769 9.5868
" />
<path d="M90.9769 9.5868
L91.0979 9.6472
" />
<path d="M91.0979 9.6472
L91.2188 9.6472
" />
</g></g>
<g style="fill:none; 
stroke:#009600; stroke-width:0.1524; stroke-opacity:1; 
stroke-linecap:round; stroke-linejoin:round;">
<path d="M66.0400 30.4800
L81.2800 30.4800
" />
<path d="M66.0400 24.1300
L66.0400 30.4800
" />
<path d="M20.3200 10.1600
L20.3200 16.5100
" />
<path d="M26.6700 10.1600
L20.3200 10.1600
" />
<path d="M81.2800 24.1300
L81.2800 30.4800
" />
<path d="M12.7000 10.1600
L20.3200 10.1600
" />
<path d="M34.2900 10.1600
L66.0400 10.1600
" />
<path d="M38.1000 30.4800
L66.0400 30.4800
" />
<path d="M60.9600 25.4000
L43.1800 25.4000
" />
<path d="M40.6400 10.1600
L40.6400 12.7000
" />
<path d="M38.1000 30.4800
L38.1000 25.4000
" />
<path d="M60.9600 7.6200
L60.9600 25.4000
" />
<path d="M81.2800 10.1600
L81.2800 16.5100
" />
<path d="M81.2800 10.1600
L91.4400 10.1600
" />
<path d="M77.4700 10.1600
L81.2800 10.1600
" />
<path d="M66.0400 10.1600
L66.0400 16.5100
" />
<path d="M66.0400 10.1600
L69.8500 10.1600
" />
<path d="M20.3200 30.4800
L38.1000 30.4800
" />
<path d="M20.3200 24.1300
L20.3200 30.4800
" />
</g>
<g style="fill:none; 
stroke:#0000C2; stroke-width:0.1524; stroke-opacity:1; 
stroke-linecap:round; stroke-linejoin:round;">
<text x="7.6200" y="10.5450"
textLength="8.6093" font-size="1.6933" lengthAdjust="spacingAndGlyphs"
text-anchor="middle" opacity="0" stroke-opacity="0">ADS1115</text>
<g class="stroked-text"><desc>ADS1115</desc>
<path d="M3.6589 10.1267
L4.2636 10.1267
" />
<path d="M3.5379 10.4895
L3.9612 9.2195
" />
<path d="M3.9612 9.2195
L4.3846 10.4895
" />
<path d="M4.8079 10.4895
L4.8079 9.2195
" />
<path d="M4.8079 9.2195
L5.1103 9.2195
" />
<path d="M5.1103 9.2195
L5.2917 9.2800
" />
<path d="M5.2917 9.2800
L5.4127 9.4010
" />
<path d="M5.4127 9.4010
L5.4732 9.5219
" />
<path d="M5.4732 9.5219
L5.5336 9.7638
" />
<path d="M5.5336 9.7638
L5.5336 9.9452
" />
<path d="M5.5336 9.9452
L5.4732 10.1871
" />
<path d="M5.4732 10.1871
L5.4127 10.3081
" />
<path d="M5.4127 10.3081
L5.2917 10.4291
" />
<path d="M5.2917 10.4291
L5.1103 10.4895
" />
<path d="M5.1103 10.4895
L4.8079 10.4895
" />
<path d="M6.0175 10.4291
L6.1989 10.4895
" />
<path d="M6.1989 10.4895
L6.5013 10.4895
" />
<path d="M6.5013 10.4895
L6.6222 10.4291
" />
<path d="M6.6222 10.4291
L6.6827 10.3686
" />
<path d="M6.6827 10.3686
L6.7432 10.2476
" />
<path d="M6.7432 10.2476
L6.7432 10.1267
" />
<path d="M6.7432 10.1267
L6.6827 10.0057
" />
<path d="M6.6827 10.0057
L6.6222 9.9452
" />
<path d="M6.6222 9.9452
L6.5013 9.8848
" />
<path d="M6.5013 9.8848
L6.2594 9.8243
" />
<path d="M6.2594 9.8243
L6.1384 9.7638
" />
<path d="M6.1384 9.7638
L6.0779 9.7033
" />
<path d="M6.0779 9.7033
L6.0175 9.5824
" />
<path d="M6.0175 9.5824
L6.0175 9.4614
" />
<path d="M6.0175 9.4614
L6.0779 9.3405
" />
<path d="M6.0779 9.3405
L6.1384 9.2800
" />
<path d="M6.1384 9.2800
L6.2594 9.2195
" />
<path d="M6.2594 9.2195
L6.5617 9.2195
" />
<path d="M6.5617 9.2195
L6.7432 9.2800
" />
<path d="M7.9527 10.4895
L7.2270 10.4895
" />
<path d="M7.5898 10.4895
L7.5898 9.2195
" />
<path d="M7.5898 9.2195
L7.4689 9.4010
" />
<path d="M7.4689 9.4010
L7.3479 9.5219
" />
<path d="M7.3479 9.5219
L7.2270 9.5824
" />
<path d="M9.1622 10.4895
L8.4365 10.4895
" />
<path d="M8.7993 10.4895
L8.7993 9.2195
" />
<path d="M8.7993 9.2195
L8.6784 9.4010
" />
<path d="M8.6784 9.4010
L8.5574 9.5219
" />
<path d="M8.5574 9.5219
L8.4365 9.5824
" />
<path d="M10.3717 10.4895
L9.6460 10.4895
" />
<path d="M10.0088 10.4895
L10.0088 9.2195
" />
<path d="M10.0088 9.2195
L9.8879 9.4010
" />
<path d="M9.8879 9.4010
L9.7669 9.5219
" />
<path d="M9.7669 9.5219
L9.6460 9.5824
" />
<path d="M11.5207 9.2195
L10.9159 9.2195
" />
<path d="M10.9159 9.2195
L10.8555 9.8243
" />
<path d="M10.8555 9.8243
L10.9159 9.7638
" />
<path d="M10.9159 9.7638
L11.0369 9.7033
" />
<path d="M11.0369 9.7033
L11.3393 9.7033
" />
<path d="M11.3393 9.7033
L11.4602 9.7638
" />
<path d="M11.4602 9.7638
L11.5207 9.8243
" />
<path d="M11.5207 9.8243
L11.5812 9.9452
" />
<path d="M11.5812 9.9452
L11.5812 10.2476
" />
<path d="M11.5812 10.2476
L11.5207 10.3686
" />
<path d="M11.5207 10.3686
L11.4602 10.4291
" />
<path d="M11.4602 10.4291
L11.3393 10.4895
" />
<path d="M11.3393 10.4895
L11.0369 10.4895
" />
<path d="M11.0369 10.4895
L10.9159 10.4291
" />
<path d="M10.9159 10.4291
L10.8555 10.3686
" />
</g><rect x="2.540000" y="2.540000" width="10.160000" height="15.240000" rx="0.000000" />
</g>
<g style="fill:#009600; fill-opacity:1.0000; stroke:none;">
<circle cx="38.1000" cy="30.4800" r="0.4572" /> 
</g>
<g style="fill:#009600; fill-opacity:1.0000; stroke:none;">
<circle cx="66.0400" cy="10.1600" r="0.4572" /> 
</g>
<g style="fill:#009600; fill-opacity:1.0000; stroke:none;">
<circle cx="81.2800" cy="10.1600" r="0.4572" /> 
</g>
<g style="fill:#009600; fill-opacity:1.0000; stroke:none;">
<circle cx="40.6400" cy="10.1600" r="0.4572" /> 
</g>
<g style="fill:#009600; fill-opacity:1.0000; stroke:none;">
<circle cx="20.3200" cy="10.1600" r="0.4572" /> 
</g>
<g style="fill:#009600; fill-opacity:1.0000; stroke:none;">
<circle cx="66.0400" cy="30.4800" r="0.4572" /> 
</g> 
</svg>
